<?xml version="1.0" encoding="UTF-8"?>
<svg id="Layer_2" data-name="Layer 2" xmlns="http://www.w3.org/2000/svg" viewBox="0 0 233.58 151.78">
  <defs>
    <style>
      .cls-1 {
        fill: none;
        stroke: #fff;
        stroke-miterlimit: 10;
      }
    </style>
  </defs>
  <g id="Layer_3" data-name="Layer 3">
    <g>
      <g>
        <path class="cls-1" d="M171.43,54.37l-13.91,17.87h-47.17c-.21,0-.41.07-.58.2l-63,48.51-13.15-15.64,66.8-51.32c.27-.21.6-.32.93-.31l70.08.7Z"/>
        <path class="cls-1" d="M57.69,141.45L15.61,89.33c-.36-.44-1.01-.5-1.44-.12l-9.29,8.19c-.4.35-.45.96-.12,1.38l41.96,52.13c.36.44,1.01.5,1.44.13l9.4-8.19c.41-.35.46-.96.12-1.38Z"/>
        <path class="cls-1" d="M8.11,107.83l-7.24,5.86c-.43.35-.5.98-.14,1.41l29.26,35.45c.35.43.98.49,1.41.13l6.61-5.48c.42-.35.48-.97.14-1.39l-28.63-35.83c-.35-.43-.98-.5-1.41-.15Z"/>
        <path class="cls-1" d="M4.03,128.61l2.14-2.02c.42-.4,1.09-.35,1.46.09l12.03,14.59c.35.43.29,1.06-.13,1.41l-2.06,1.7c-.42.35-1.05.29-1.4-.12l-12.1-14.27c-.34-.41-.31-1.01.08-1.37Z"/>
      </g>
      <g>
        <path class="cls-1" d="M27.28,79.08l-2.3-20.68,39.93-30.01c.1-.07.22-.11.34-.11h129.48v16.04h-122.66c-.14,0-.27.05-.38.13l-44.42,34.64Z"/>
        <path class="cls-1" d="M198.9,1.83l-.67,66.98c0,.57.46,1.03,1.03,1.01l12.37-.41c.53-.02.96-.45.97-.99l.76-66.91c0-.57-.46-1.03-1.03-1.01l-12.47.34c-.54.01-.97.45-.97.99Z"/>
        <path class="cls-1" d="M215.78,59.32l9.32.08c.56,0,1.01-.44,1.01-1l-.04-45.97c0-.55-.45-1-1-1l-8.59.03c-.55,0-.99.44-1,.98l-.69,45.86c0,.55.44,1.01.99,1.01Z"/>
        <path class="cls-1" d="M232.15,45.87l-2.93.2c-.58.04-1.07-.42-1.07-1v-18.9c0-.55.44-1,.99-1h2.67c.55,0,.99.43,1,.98l.27,18.71c0,.53-.4.98-.93,1.01Z"/>
      </g>
    </g>
  </g>
</svg>