<svg xmlns="http://www.w3.org/2000/svg" viewBox="0 0 334.28 256.69"><defs><style>.cls-1{fill:#fff;}</style></defs><title>Recurso 2</title><g id="Capa_2" data-name="Capa 2"><g id="Parte_Abajo" data-name="Parte Abajo"><polygon class="cls-1" points="29.3 0 213.51 0 185.27 28.25 0 28.25 29.3 0"/><polygon class="cls-1" points="59.11 42.41 112.34 42.41 102.99 51.77 161.81 51.77 132.56 81.02 20.04 81.02 59.11 42.41"/><polygon class="cls-1" points="73.08 93.54 118.72 93.54 35.3 174.93 73.08 93.54"/><polygon class="cls-1" points="150.06 81.77 334.28 81.77 306.03 110.01 120.77 110.01 150.06 81.77"/><polygon class="cls-1" points="179.87 124.18 233.11 124.18 223.75 133.53 282.57 133.53 253.32 162.78 140.81 162.78 179.87 124.18"/><polygon class="cls-1" points="193.85 175.31 239.49 175.31 156.06 256.69 193.85 175.31"/></g></g></svg>